<svg width="95" height="90" viewBox="0 0 95 90" fill="none" xmlns="http://www.w3.org/2000/svg">
<g id="Frame" clip-path="url(#clip0_1_155)">
<g id="Group">
<path id="Vector" d="M57.8213 43.3151L48.4841 51.9802L9.05447 88.5661C8.01933 89.5289 6.69141 90.0103 5.3635 90.0103C3.91012 90.0103 2.45673 89.4367 1.40067 88.2998C-0.680072 86.0669 -0.408215 82.5743 1.98621 80.6692L48.4841 43.8272L53.6075 39.7712L57.8213 43.3151Z" fill="url(#paint0_linear_1_155)"/>
<path id="Vector_2" d="M48.0763 52.4206L38.8855 60.9423L38.0386 52.185L43.0679 48.2007L48.0763 52.4206Z" fill="#3A81D6" fill-opacity="0.8"/>
<path id="Vector_3" d="M94.6056 29.9078C94.6056 46.4288 80.9291 59.8259 64.074 59.8259C53.4507 59.8259 44.0926 54.5101 38.6241 46.4391C35.4141 41.7071 33.5425 36.0225 33.5425 29.9078C33.5425 13.3868 47.2189 0 64.074 0C71.686 0 78.6392 2.72448 83.9823 7.23114C90.4859 12.7211 94.6056 20.8433 94.6056 29.9078Z" fill="url(#paint1_linear_1_155)"/>
<path id="Vector_4" d="M64.074 53.2093C77.2115 53.2093 87.8615 42.7768 87.8615 29.9078C87.8615 17.0387 77.2115 6.60632 64.074 6.60632C50.9366 6.60632 40.2866 17.0387 40.2866 29.9078C40.2866 42.7768 50.9366 53.2093 64.074 53.2093Z" fill="white"/>
<path id="Vector_5" opacity="0.06" d="M94.6056 29.9078C94.6056 46.4288 80.9292 59.8259 64.0741 59.8259C53.4508 59.8259 44.0926 54.5101 38.6241 46.4391C73.0558 43.6941 82.1316 15.1178 83.9928 7.23114C90.4859 12.7211 94.6056 20.8433 94.6056 29.9078Z" fill="#1A6FB5" fill-opacity="0.5"/>
</g>
<path id="Vector_6" d="M64.0744 29.959C66.8348 29.959 69.0724 27.7672 69.0724 25.0632C69.0724 22.3592 66.8348 20.1673 64.0744 20.1673C61.314 20.1673 59.0765 22.3592 59.0765 25.0632C59.0765 27.7672 61.3036 29.959 64.0744 29.959ZM64.0744 32.407C60.739 32.407 54.0785 34.0458 54.0785 37.3028V38.5319C54.0785 39.2079 54.6431 39.761 55.3332 39.761H72.8366C73.5267 39.761 74.0913 39.2079 74.0913 38.5319V37.3028C74.0704 34.056 67.4099 32.407 64.0744 32.407Z" fill="url(#paint2_linear_1_155)"/>
</g>
<defs>
<linearGradient id="paint0_linear_1_155" x1="5.83642" y1="84.3265" x2="54.2065" y2="39.4366" gradientUnits="userSpaceOnUse">
<stop stop-color="#67C3F3"/>
<stop offset="1" stop-color="#5A98F2"/>
</linearGradient>
<linearGradient id="paint1_linear_1_155" x1="51.446" y1="2.11336" x2="73.7828" y2="53.3751" gradientUnits="userSpaceOnUse">
<stop stop-color="#6888C8"/>
<stop offset="1" stop-color="#5A98F2"/>
</linearGradient>
<linearGradient id="paint2_linear_1_155" x1="56.8478" y1="28.3947" x2="74.8054" y2="37.3359" gradientUnits="userSpaceOnUse">
<stop stop-color="#B0F4FF"/>
<stop offset="0.071077" stop-color="#A6F1FF"/>
<stop offset="0.2937" stop-color="#8BE8FD"/>
<stop offset="0.5209" stop-color="#78E1FD"/>
<stop offset="0.7536" stop-color="#6DDDFC"/>
<stop offset="1" stop-color="#69DCFC"/>
</linearGradient>
<clipPath id="clip0_1_155">
<rect width="94.606" height="90" fill="white"/>
</clipPath>
</defs>
</svg>
