<svg width="64" height="85" viewBox="0 0 64 85" fill="none" xmlns="http://www.w3.org/2000/svg">
<g clip-path="url(#clip0_1_188)">
<path d="M63.6247 26.4806L63.4276 66.2815L63.3947 73.9797C63.3619 80.0968 57.3822 85.0319 50.0225 85L13.2572 84.8403C5.91401 84.7924 -0.0328421 79.8093 1.34185e-05 73.6762L0.230002 26.1772C0.24643 21.226 4.18909 17.0415 9.5774 15.652L9.59382 13.0966V11.7869L54.3923 11.9946L54.3759 15.8596C59.7478 17.313 63.6411 21.5135 63.6247 26.4806Z" fill="url(#paint0_linear_1_188)"/>
<path d="M57.7271 1.77283V2.1242L57.6943 6.27678L57.6614 10.3495V10.8446C57.6614 11.6112 57.0043 12.2341 56.2158 12.2341H55.8708L53.7023 12.2182L51.3203 12.2022L49.1518 12.1862L46.7698 12.1702L44.5685 12.1383L42.1865 12.1223L40.018 12.1064L37.6196 12.0904L35.4347 12.0744L33.0526 12.0584L30.8842 12.0265L28.5021 12.0105L26.3337 11.9945L23.9352 11.9786L21.7503 11.9626L19.3847 11.9466L17.2163 11.9307L14.8342 11.9147L12.6493 11.8987L10.2673 11.8828L8.08243 11.8668H7.73744C6.94891 11.8668 6.30823 11.2279 6.30823 10.4613V10.4453V10.0939L6.37394 1.88463V1.38952C6.37394 0.622886 7.03105 0 7.83601 0H8.18099L12.7479 0.0319429L17.3148 0.0638858L19.4997 0.0798572L21.8818 0.0958286L24.0502 0.1118L28.6007 0.159714L30.9827 0.175686L33.1512 0.191657L35.5332 0.207629L37.7017 0.2236L40.0837 0.239572L42.2522 0.255543L44.6342 0.271514L46.8027 0.287486L49.2176 0.319429L51.386 0.3354L53.768 0.351372L55.9529 0.367343H56.2979C57.1029 0.383315 57.7271 1.0062 57.7271 1.77283Z" fill="url(#paint1_linear_1_188)"/>
<path d="M57.7271 2.14019L57.6943 6.27679L57.6614 10.3495L55.7065 10.3335L53.1109 10.3176L50.7289 10.3016H48.1169L45.7349 10.2856L43.1393 10.2697L40.7573 10.2537H38.1452L35.7632 10.2377L33.1512 10.2217L30.7856 10.2058H28.1736L25.7916 10.1898L23.1795 10.1738L20.7975 10.1579H18.2019L15.8199 10.1419L13.2079 10.1259L10.8259 10.1099H8.23028L6.30823 10.094L6.37394 1.88464L10.9409 1.90061L15.9185 1.93256L18.3005 1.94853L20.9125 1.9645H23.2945L28.2722 1.99644L30.8842 2.01242H33.2662L35.8782 2.02839L38.2438 2.04436L40.8558 2.06033H43.2379L45.8499 2.0763L48.2155 2.09227L50.8275 2.10824H53.2095L55.8215 2.12422L57.7271 2.14019Z" fill="url(#paint2_linear_1_188)"/>
<path d="M63.5766 34.8841L0.181885 34.5927L0.0489578 61.9198L63.4437 62.2113L63.5766 34.8841Z" fill="#F7F9FC"/>
<path d="M63.5878 34.884L0.192993 34.5927L0.169073 39.5119L63.5638 39.8032L63.5878 34.884Z" fill="#FBFCF7"/>
<path d="M24.9045 45.5803L20.814 45.5644L20.8304 41.5715L15.1957 41.5555L15.1793 45.5324L11.0888 45.5165L11.0559 50.9787L15.1464 50.9947L15.13 54.9875L20.7647 55.0035L20.7811 51.0266L24.8717 51.0426L24.9045 45.5803Z" fill="url(#paint3_linear_1_188)"/>
<path d="M52.7003 46.906L32.4284 46.8102C31.8863 46.8102 31.4427 46.379 31.4427 45.8519V45.4047C31.4427 44.8776 31.8863 44.4464 32.4284 44.4464L52.7003 44.5422C53.2424 44.5422 53.6859 44.9735 53.6859 45.5005V45.9477C53.6859 46.4748 53.2424 46.906 52.7003 46.906Z" fill="url(#paint4_linear_1_188)"/>
<path opacity="0.5" d="M52.6839 52.7675L32.4121 52.6717C31.8699 52.6717 31.4264 52.2405 31.4264 51.7134V51.2662C31.4264 50.7392 31.8699 50.3079 32.4121 50.3079L52.6839 50.4038C53.226 50.4038 53.6696 50.835 53.6696 51.362V51.8092C53.6696 52.3363 53.226 52.7675 52.6839 52.7675Z" fill="url(#paint5_linear_1_188)"/>
<path opacity="0.08" d="M6.30823 1.77286V2.12423L6.34108 6.2768L6.37394 10.3335V10.8287C6.37394 11.5953 7.03105 12.2182 7.81958 12.2182H8.16457L10.3495 12.2022L12.7315 12.1862L14.8999 12.1703L17.282 12.1543L19.4504 12.1383L21.8325 12.1223L24.0009 12.1064L26.383 12.0904L28.5679 12.0744L30.9499 12.0585L33.1183 12.0425L35.5004 12.0265L37.6688 12.0105L40.0509 11.9946L42.2358 11.9786L44.6178 11.9626L46.7862 11.9467L49.1683 11.9307L51.3367 11.9147L53.7188 11.8987L55.9037 11.8828H56.2486C57.0372 11.8828 57.6779 11.2439 57.6779 10.4773V10.4613V10.1099C32.2641 11.18 7.73744 0.367371 7.73744 0.367371C6.94891 0.383342 6.30823 1.00623 6.30823 1.77286Z" fill="#1A6FB5"/>
</g>
<defs>
<linearGradient id="paint0_linear_1_188" x1="1.30824e-05" y1="11.3333" x2="56.6195" y2="91.7103" gradientUnits="userSpaceOnUse">
<stop stop-color="#6CBCFC"/>
<stop offset="1" stop-color="#458DFC"/>
</linearGradient>
<linearGradient id="paint1_linear_1_188" x1="-647.928" y1="-39.931" x2="-28.5661" y2="4.44122" gradientUnits="userSpaceOnUse">
<stop stop-color="#B0F4FF"/>
<stop offset="0.0525488" stop-color="#A9F2FF"/>
<stop offset="0.2879" stop-color="#8DE8FE"/>
<stop offset="0.5247" stop-color="#79E1FD"/>
<stop offset="0.7618" stop-color="#6DDDFC"/>
<stop offset="1" stop-color="#69DCFC"/>
</linearGradient>
<linearGradient id="paint2_linear_1_188" x1="6.31532" y1="6.11313" x2="57.7293" y2="6.11313" gradientUnits="userSpaceOnUse">
<stop stop-color="#B0F4FF"/>
<stop offset="0.0525488" stop-color="#A9F2FF"/>
<stop offset="0.2879" stop-color="#8DE8FE"/>
<stop offset="0.5247" stop-color="#79E1FD"/>
<stop offset="0.7618" stop-color="#6DDDFC"/>
<stop offset="1" stop-color="#69DCFC"/>
</linearGradient>
<linearGradient id="paint3_linear_1_188" x1="22.6059" y1="43.0953" x2="13.2664" y2="54.1729" gradientUnits="userSpaceOnUse">
<stop stop-color="#6CBCFC"/>
<stop offset="1" stop-color="#458DFC"/>
</linearGradient>
<linearGradient id="paint4_linear_1_188" x1="53.8815" y1="45.671" x2="29.712" y2="45.671" gradientUnits="userSpaceOnUse">
<stop stop-color="#6CBCFC"/>
<stop offset="1" stop-color="#458DFC"/>
</linearGradient>
<linearGradient id="paint5_linear_1_188" x1="31.4249" y1="51.5322" x2="53.6699" y2="51.5322" gradientUnits="userSpaceOnUse">
<stop stop-color="#6888C8"/>
<stop offset="1" stop-color="#458DFC"/>
</linearGradient>
<clipPath id="clip0_1_188">
<rect width="63.6247" height="85" fill="white"/>
</clipPath>
</defs>
</svg>
