<svg width="63" height="95" viewBox="0 0 63 95" fill="none" xmlns="http://www.w3.org/2000/svg">
<g clip-path="url(#clip0_1_167)">
<path d="M60.3105 0H2.1627C0.966804 0 6.10352e-05 1.02822 6.10352e-05 2.30017V92.7074C6.10352e-05 93.9794 0.966804 95.0076 2.1627 95.0076H60.3105C61.5064 95.0076 62.4731 93.9794 62.4731 92.7074V2.30017C62.466 1.02822 61.4992 0 60.3105 0Z" fill="url(#paint0_linear_1_167)"/>
<path d="M56.4936 4.09766H5.97236C4.81226 4.09766 3.867 5.10303 3.867 6.34451V81.0923C3.867 82.3338 4.81226 83.3316 5.97236 83.3316H56.4936C57.6609 83.3316 58.599 82.3262 58.599 81.0923V6.34451C58.599 5.10303 57.6609 4.09766 56.4936 4.09766Z" fill="white"/>
<path d="M41.5628 39.636H20.9103C19.9651 39.636 19.1989 38.8211 19.1989 37.8157V15.8422C19.1989 14.8369 19.9651 14.0219 20.9103 14.0219H41.5628C42.5081 14.0219 43.2743 14.8369 43.2743 15.8422V37.8081C43.2743 38.8135 42.5081 39.636 41.5628 39.636Z" fill="url(#paint1_linear_1_167)"/>
<path d="M31.2366 92.5475C32.9926 92.5475 34.4161 91.0335 34.4161 89.1658C34.4161 87.2981 32.9926 85.7841 31.2366 85.7841C29.4806 85.7841 28.0571 87.2981 28.0571 89.1658C28.0571 91.0335 29.4806 92.5475 31.2366 92.5475Z" fill="white"/>
<path d="M49.2323 51.015H13.2337C12.3242 51.015 11.5795 50.2229 11.5795 49.2556C11.5795 48.2883 12.3242 47.4962 13.2337 47.4962H49.2252C50.1346 47.4962 50.8794 48.2883 50.8794 49.2556C50.8794 50.2229 50.1418 51.015 49.2323 51.015Z" fill="url(#paint2_linear_1_167)"/>
<path opacity="0.6" d="M43.1383 60.764H12.6322C12.0521 60.764 11.5867 60.2613 11.5867 59.652V59.5302C11.5867 58.9132 12.0593 58.4182 12.6322 58.4182H43.1383C43.7183 58.4182 44.1838 58.9208 44.1838 59.5302V59.652C44.191 60.2613 43.7183 60.764 43.1383 60.764Z" fill="url(#paint3_linear_1_167)"/>
<path opacity="0.3" d="M37.3306 66.9562H12.5319C12.0091 66.9562 11.5795 66.4992 11.5795 65.9432V65.6081C11.5795 65.0521 12.0091 64.5951 12.5319 64.5951H37.3235C37.8462 64.5951 38.2759 65.0521 38.2759 65.6081V65.9432C38.2759 66.4992 37.8462 66.9562 37.3306 66.9562Z" fill="url(#paint4_linear_1_167)"/>
<path opacity="0.6" d="M40.4529 72.6914H12.5892C12.0378 72.6914 11.5867 72.2116 11.5867 71.6251V71.4119C11.5867 70.8254 12.0378 70.3456 12.5892 70.3456H40.4529C41.0043 70.3456 41.4554 70.8254 41.4554 71.4119V71.6251C41.4554 72.204 41.0043 72.6914 40.4529 72.6914Z" fill="url(#paint5_linear_1_167)"/>
<path d="M31.2987 26.1208C33.3665 26.1208 35.0427 24.3141 35.0427 22.0854C35.0427 19.8566 33.3665 18.05 31.2987 18.05C29.2308 18.05 27.5546 19.8566 27.5546 22.0854C27.5546 24.3141 29.223 26.1208 31.2987 26.1208ZM31.2987 28.1385C28.8 28.1385 23.8106 29.4892 23.8106 32.1739V33.1869C23.8106 33.7441 24.2336 34.2 24.7505 34.2H37.8625C38.3795 34.2 38.8024 33.7441 38.8024 33.1869V32.1739C38.7868 29.4977 33.7973 28.1385 31.2987 28.1385Z" fill="white"/>
</g>
<defs>
<linearGradient id="paint0_linear_1_167" x1="3.78467" y1="45.0301" x2="62.5743" y2="49.7086" gradientUnits="userSpaceOnUse">
<stop stop-color="#6CBCFC"/>
<stop offset="1" stop-color="#458DFC"/>
</linearGradient>
<linearGradient id="paint1_linear_1_167" x1="17.3319" y1="19.2924" x2="45.8183" y2="32.9391" gradientUnits="userSpaceOnUse">
<stop stop-color="#B0F4FF"/>
<stop offset="0.0856277" stop-color="#A3F0FE"/>
<stop offset="0.2972" stop-color="#8AE7FD"/>
<stop offset="0.5161" stop-color="#77E1FD"/>
<stop offset="0.7451" stop-color="#6DDDFC"/>
<stop offset="1" stop-color="#69DCFC"/>
</linearGradient>
<linearGradient id="paint2_linear_1_167" x1="50.8828" y1="49.257" x2="11.5862" y2="49.257" gradientUnits="userSpaceOnUse">
<stop stop-color="#6CBCFC"/>
<stop offset="1" stop-color="#458DFC"/>
</linearGradient>
<linearGradient id="paint3_linear_1_167" x1="44.1889" y1="59.5877" x2="11.5863" y2="59.5877" gradientUnits="userSpaceOnUse">
<stop stop-color="#6CBCFC"/>
<stop offset="1" stop-color="#458DFC"/>
</linearGradient>
<linearGradient id="paint4_linear_1_167" x1="38.2766" y1="65.7799" x2="11.5862" y2="65.7799" gradientUnits="userSpaceOnUse">
<stop stop-color="#6888C8"/>
<stop offset="1" stop-color="#458DFC"/>
</linearGradient>
<linearGradient id="paint5_linear_1_167" x1="41.4548" y1="71.5124" x2="11.5863" y2="71.5124" gradientUnits="userSpaceOnUse">
<stop stop-color="#6CBCFC"/>
<stop offset="1" stop-color="#458DFC"/>
</linearGradient>
<clipPath id="clip0_1_167">
<rect width="62.4659" height="95" fill="white"/>
</clipPath>
</defs>
</svg>
