<svg width="63" height="95" viewBox="0 0 63 95" fill="none" xmlns="http://www.w3.org/2000/svg">
<g clip-path="url(#clip0_1_203)">
<path d="M62.2651 90.4482C62.2651 92.9272 60.4026 94.942 58.1013 94.942L4.2562 95.0083C2.42442 95.0083 0.869711 93.7398 0.307862 91.9737C0.161628 91.5177 0.0846621 91.0368 0.0846621 90.5311L0 6.88167C0 4.40261 1.86257 2.38786 4.16384 2.38786L53.6065 2.32982L58.0089 2.32153C60.3102 2.32153 62.1805 4.32799 62.1805 6.80704L62.2651 90.4482Z" fill="url(#paint0_linear_1_203)"/>
<path d="M56.6852 89.9673L5.66469 90.0253C4.42554 90.0253 3.42499 88.9474 3.42499 87.6126L3.34802 9.76697C3.34802 8.43209 4.34857 7.35424 5.58772 7.35424L56.6005 7.2962C57.8396 7.2962 58.8402 8.37405 58.8402 9.70893L58.9172 87.5545C58.9249 88.8811 57.9243 89.9673 56.6852 89.9673Z" fill="white"/>
<path d="M49.5196 13.7135L12.3067 13.7633C11.0753 13.7633 10.067 12.6854 10.067 11.3589L10.0593 4.6762C10.0593 3.34961 11.0599 2.26347 12.2913 2.26347L49.5119 2.22202C50.7433 2.22202 51.7516 3.29986 51.7516 4.62645L51.7593 11.3091C51.7516 12.6357 50.751 13.7135 49.5196 13.7135ZM12.2913 3.49056C11.691 3.49056 11.1984 4.02119 11.1984 4.6679L11.2061 11.3506C11.2061 11.9973 11.6987 12.5279 12.299 12.5279L49.5196 12.4865C50.1199 12.4865 50.6125 11.9558 50.6125 11.3091L50.6048 4.62645C50.6048 3.97974 50.1122 3.44911 49.5119 3.44911L12.2913 3.49056Z" fill="url(#paint1_linear_1_203)"/>
<path d="M48.4652 5.11564L13.7153 5.1571C13.3304 5.1571 13.0226 4.82545 13.0226 4.41089V0.787659C13.0226 0.373102 13.3304 0.0414557 13.7153 0.0414557L48.4576 0C48.8424 0 49.1502 0.331646 49.1502 0.746203V4.36944C49.1579 4.78399 48.8501 5.11564 48.4652 5.11564Z" fill="url(#paint2_linear_1_203)"/>
<path d="M13.7461 5.15708L48.4344 5.11562C48.8347 5.11562 49.1579 4.7674 49.1579 4.33626V2.56195L13.0149 2.60341V4.37771C13.0149 4.80885 13.3458 5.15708 13.7461 5.15708Z" fill="#58D6F4"/>
<path d="M25.9373 81.2118L22.9357 61.6447L20.5036 70.1597L13.5459 70.168C13.1226 70.168 12.7839 69.8032 12.7839 69.3472C12.7839 68.8912 13.1226 68.5264 13.5459 68.5264L19.3876 68.5181L23.3975 54.4977L26.3991 74.1146L30.2936 60.6415L32.364 67.0257L37.0281 54.846L41.5614 74.1643L43.27 68.0206L48.2728 68.0123C48.6961 68.0123 49.0347 68.3771 49.0347 68.8331C49.0347 69.2892 48.6961 69.654 48.2728 69.654L44.4014 69.6623L41.4382 80.3164L36.6817 60.0528L32.2408 71.6355L30.3706 65.8732L25.9373 81.2118Z" fill="#58D6F4"/>
<path d="M20.7807 43.4871L10.9984 43.4954C9.4206 43.4954 8.12758 42.1108 8.12758 40.4111L8.11218 25.6777C8.11218 23.978 9.39751 22.5851 10.9753 22.5851L20.7576 22.5768C22.3354 22.5768 23.6284 23.9614 23.6284 25.6611L23.6438 40.3945C23.6438 42.0942 22.3585 43.4788 20.7807 43.4871ZM10.9676 23.4806C9.84391 23.4806 8.93571 24.4672 8.93571 25.6777L8.95111 40.4111C8.95111 41.6216 9.867 42.5999 10.9907 42.5999L20.773 42.5917C21.8967 42.5917 22.8049 41.605 22.8049 40.3945L22.7895 25.6611C22.7895 24.4506 21.8736 23.4723 20.7499 23.4723L10.9676 23.4806Z" fill="url(#paint3_linear_1_203)"/>
<path d="M15.878 40.6598C20.5037 40.6515 21.9429 37.7745 21.9429 37.7745C21.7351 37.4926 21.4734 37.2439 21.1194 36.9951C19.9033 36.1411 18.9259 35.7763 18.5179 35.4115C18.1023 35.055 17.8714 34.5327 17.8714 34.5327L17.6174 34.6985C17.6174 34.6985 17.4635 34.1264 17.5482 33.2558C17.5482 33.2558 17.9099 33.1563 18.1793 31.838C18.6103 31.9292 19.1183 30.7519 18.8797 30.3207C18.7258 30.0388 18.541 30.0637 18.4102 30.1301C18.541 29.5414 19.1337 26.283 15.8703 26.283C12.607 26.283 13.1996 29.5414 13.3382 30.1301C13.2073 30.0637 13.0226 30.0388 12.8687 30.3207C12.6301 30.7519 13.1457 31.9292 13.5768 31.838C13.8461 33.1563 14.2156 33.2475 14.2156 33.2475C14.3079 34.1098 14.1463 34.6902 14.1463 34.6902L13.8923 34.5244C13.8923 34.5244 13.6614 35.0384 13.2458 35.4032C12.8302 35.768 11.8604 36.1411 10.6444 36.9951C10.2903 37.2439 10.0209 37.4926 9.82083 37.7745C9.81313 37.7911 11.2601 40.6681 15.878 40.6598Z" fill="url(#paint4_linear_1_203)"/>
<path d="M46.3409 27.2779L27.5075 27.3028C27.1534 27.3028 26.8687 26.996 26.8687 26.6146V26.4985C26.8687 26.1171 27.1534 25.8104 27.5075 25.8104L46.3409 25.7855C46.695 25.7855 46.9798 26.0923 46.9798 26.4737V26.5897C46.9798 26.9711 46.6873 27.2779 46.3409 27.2779Z" fill="url(#paint5_linear_1_203)"/>
<path d="M39.414 31.1416L27.5075 31.1582C27.1534 31.1582 26.8687 30.8514 26.8687 30.47V30.3539C26.8687 29.9725 27.1534 29.6657 27.5075 29.6657L39.414 29.6491C39.7681 29.6491 40.0529 29.9559 40.0529 30.3373V30.4534C40.0529 30.8348 39.7681 31.1416 39.414 31.1416Z" fill="url(#paint6_linear_1_203)"/>
<path opacity="0.6" d="M52.8368 35.7349L27.5152 35.768C27.1611 35.768 26.8763 35.4613 26.8763 35.0799V34.9638C26.8763 34.5824 27.1611 34.2756 27.5152 34.2756L52.8368 34.2425C53.1909 34.2425 53.4756 34.5492 53.4756 34.9306V35.0467C53.4679 35.4281 53.1832 35.7349 52.8368 35.7349Z" fill="url(#paint7_linear_1_203)"/>
<path opacity="0.6" d="M52.2904 48.6442L10.0517 48.6939C9.68994 48.6939 9.38977 48.3789 9.38977 47.9809V47.9146C9.38977 47.5249 9.68224 47.2015 10.0517 47.2015L52.2904 47.1518C52.6521 47.1518 52.9523 47.4668 52.9523 47.8648V47.9311C52.9523 48.3291 52.6521 48.6442 52.2904 48.6442Z" fill="url(#paint8_linear_1_203)"/>
<path opacity="0.6" d="M52.8368 40.2452L27.5152 40.2784C27.1611 40.2784 26.8763 39.9716 26.8763 39.5902V39.4742C26.8763 39.0928 27.1611 38.786 27.5152 38.786L52.8368 38.7528C53.1909 38.7528 53.4756 39.0596 53.4756 39.441V39.5571C53.4756 39.9385 53.1909 40.2452 52.8368 40.2452Z" fill="url(#paint9_linear_1_203)"/>
</g>
<defs>
<linearGradient id="paint0_linear_1_203" x1="-8.62255" y1="34.748" x2="71.9517" y2="59.0506" gradientUnits="userSpaceOnUse">
<stop stop-color="#6CBCFC"/>
<stop offset="0.1713" stop-color="#5EABFC"/>
<stop offset="0.4084" stop-color="#509AFC"/>
<stop offset="0.6698" stop-color="#4890FC"/>
<stop offset="1" stop-color="#458DFC"/>
</linearGradient>
<linearGradient id="paint1_linear_1_203" x1="-4.85035" y1="-21.375" x2="53.2661" y2="4.60533" gradientUnits="userSpaceOnUse">
<stop stop-color="#CFE9FF"/>
<stop offset="1" stop-color="#A1D6FB"/>
</linearGradient>
<linearGradient id="paint2_linear_1_203" x1="13.0138" y1="2.57952" x2="49.1573" y2="2.57952" gradientUnits="userSpaceOnUse">
<stop stop-color="#B0F4FF"/>
<stop offset="1" stop-color="#69DCFC"/>
</linearGradient>
<linearGradient id="paint3_linear_1_203" x1="13.1213" y1="29.2076" x2="23.0594" y2="41.1167" gradientUnits="userSpaceOnUse">
<stop stop-color="#6CBCFC"/>
<stop offset="1" stop-color="#458DFC"/>
</linearGradient>
<linearGradient id="paint4_linear_1_203" x1="12.1366" y1="30.0293" x2="22.0747" y2="41.9385" gradientUnits="userSpaceOnUse">
<stop stop-color="#B0F4FF"/>
<stop offset="0.0994384" stop-color="#A1EFFE"/>
<stop offset="0.2994" stop-color="#88E7FD"/>
<stop offset="0.5095" stop-color="#77E1FD"/>
<stop offset="0.7344" stop-color="#6CDDFC"/>
<stop offset="1" stop-color="#69DCFC"/>
</linearGradient>
<linearGradient id="paint5_linear_1_203" x1="26.8697" y1="26.5509" x2="46.9757" y2="26.5621" gradientUnits="userSpaceOnUse">
<stop stop-color="#6CBCFC"/>
<stop offset="1" stop-color="#458DFC"/>
</linearGradient>
<linearGradient id="paint6_linear_1_203" x1="26.8734" y1="30.4037" x2="40.0521" y2="30.4037" gradientUnits="userSpaceOnUse">
<stop stop-color="#6CBCFC"/>
<stop offset="1" stop-color="#458DFC"/>
</linearGradient>
<linearGradient id="paint7_linear_1_203" x1="26.8778" y1="35.0098" x2="53.4713" y2="35.0098" gradientUnits="userSpaceOnUse">
<stop stop-color="#6CBCFC"/>
<stop offset="1" stop-color="#458DFC"/>
</linearGradient>
<linearGradient id="paint8_linear_1_203" x1="9.3894" y1="47.9272" x2="52.9501" y2="47.9272" gradientUnits="userSpaceOnUse">
<stop stop-color="#6888C8"/>
<stop offset="1" stop-color="#458DFC"/>
</linearGradient>
<linearGradient id="paint9_linear_1_203" x1="26.8821" y1="39.5191" x2="53.4756" y2="39.5191" gradientUnits="userSpaceOnUse">
<stop stop-color="#6CBCFC"/>
<stop offset="1" stop-color="#458DFC"/>
</linearGradient>
<clipPath id="clip0_1_203">
<rect width="62.2651" height="95" fill="white"/>
</clipPath>
</defs>
</svg>
