<svg width="83" height="72" viewBox="0 0 83 72" fill="none" xmlns="http://www.w3.org/2000/svg">
<g clip-path="url(#clip0_1_230)">
<path d="M68.3748 14.0108H13.6372V71.1274H68.3748V14.0108Z" fill="url(#paint0_linear_1_230)"/>
<path d="M13.4103 14.0108C13.4763 14.0108 13.5424 14.0383 13.6368 14.0658C13.6368 33.068 13.6368 52.0702 13.6368 71.0999C9.39932 71.421 5.8225 70.3842 2.98181 67.7234C0.971614 65.8332 -0.000450178 63.6128 -0.000450178 61.0987C-0.000450178 52.1986 -0.000450178 43.3077 -0.000450178 34.4076C-0.000450178 31.0127 -0.0098877 27.6178 -0.0098877 24.223C-0.0098877 20.1216 2.26455 17.1396 6.44537 15.121C8.59713 14.0934 10.9848 13.9374 13.4103 14.0108Z" fill="url(#paint1_linear_1_230)"/>
<path d="M58.8146 14.0016C61.259 14.0016 61.5043 14.0016 63.9392 14.0016C63.9392 33.068 63.9392 52.0702 63.9392 71.1091C47.3197 71.1091 34.749 71.1091 18.0729 71.1091C18.0729 52.0794 18.0729 33.0772 18.0729 14.02C20.5078 14.02 21.0363 14.02 23.5183 14.02C23.5183 13.7814 23.5183 13.5979 23.5183 13.4236C23.5183 11.3775 23.5278 9.32218 23.5089 7.27607C23.49 5.84472 23.8864 4.59687 25.0378 3.62428C25.8494 2.9453 26.7837 2.59664 27.8407 2.59664C31.1155 2.58746 34.3809 2.58746 37.6557 2.58746C43.1578 2.58746 48.6693 2.59664 54.1714 2.58746C55.6153 2.58746 56.8139 3.04623 57.7576 4.11057C58.5126 4.96388 58.7958 5.964 58.7958 7.08339C58.7863 9.2396 58.7958 11.3958 58.7958 13.552C58.7863 13.6713 58.7958 13.8089 58.8146 14.0016ZM29.4262 14.0016C29.6527 14.0016 29.8226 14.0016 29.9925 14.0016C32.5972 14.0016 35.2114 14.0016 37.8162 14.0016C42.6859 14.0016 47.5651 14.0016 52.4349 14.0108C52.8218 14.0108 52.9067 13.8915 52.9067 13.5337C52.8879 11.928 52.9067 10.3223 52.9067 8.71661C52.9067 8.58815 52.8879 8.45969 52.869 8.32206C45.0359 8.32206 37.2499 8.32206 29.4262 8.32206C29.4262 10.2122 29.4262 12.0656 29.4262 14.0016Z" fill="white"/>
<mask id="mask0_1_230" style="mask-type:alpha" maskUnits="userSpaceOnUse" x="18" y="2" width="46" height="70">
<path d="M58.8146 14.0016C61.259 14.0016 61.5043 14.0016 63.9392 14.0016C63.9392 33.068 63.9392 52.0702 63.9392 71.1091C47.3197 71.1091 34.749 71.1091 18.0729 71.1091C18.0729 52.0794 18.0729 33.0772 18.0729 14.02C20.5078 14.02 21.0363 14.02 23.5183 14.02C23.5183 13.7814 23.5183 13.5979 23.5183 13.4236C23.5183 11.3775 23.5278 9.32218 23.5089 7.27607C23.49 5.84472 23.8864 4.59687 25.0378 3.62428C25.8494 2.9453 26.7837 2.59664 27.8407 2.59664C31.1155 2.58746 34.3809 2.58746 37.6557 2.58746C43.1578 2.58746 48.6693 2.59664 54.1714 2.58746C55.6153 2.58746 56.8139 3.04623 57.7576 4.11057C58.5126 4.96388 58.7958 5.964 58.7958 7.08339C58.7863 9.2396 58.7958 11.3958 58.7958 13.552C58.7863 13.6713 58.7958 13.8089 58.8146 14.0016ZM29.4262 14.0016C29.6527 14.0016 29.8226 14.0016 29.9925 14.0016C32.5972 14.0016 35.2114 14.0016 37.8162 14.0016C42.6859 14.0016 47.5651 14.0016 52.4349 14.0108C52.8218 14.0108 52.9067 13.8915 52.9067 13.5337C52.8879 11.928 52.9067 10.3223 52.9067 8.71661C52.9067 8.58815 52.8879 8.45969 52.869 8.32206C45.0359 8.32206 37.2499 8.32206 29.4262 8.32206C29.4262 10.2122 29.4262 12.0656 29.4262 14.0016Z" fill="#F7F9FC"/>
</mask>
<g mask="url(#mask0_1_230)">
<path d="M59.756 0H21.6001V14.02H59.756V0Z" fill="url(#paint2_linear_1_230)"/>
</g>
<path d="M82.2857 24.0762C82.2857 20.2959 80.1623 17.4791 76.3873 15.433C74.0656 14.1759 71.4325 13.9374 68.7334 13.9924C68.3182 14.0016 68.3748 14.2126 68.3748 14.4328C68.3748 21.0391 68.3748 27.6362 68.3748 34.2425C68.3748 45.8493 68.3748 57.447 68.3654 69.0538C68.3654 69.7236 68.3654 70.3934 68.3654 71.1183C70.0641 71.1733 71.6779 71.1825 73.2634 70.8155C78.6239 69.586 82.2763 65.7048 82.2763 61.1263C82.2951 48.7854 82.2857 36.4262 82.2857 24.0762Z" fill="url(#paint3_linear_1_230)"/>
<path d="M45.4794 46.7852C45.4794 47.9688 45.4794 49.0882 45.4794 50.2168C45.4794 51.4921 45.4794 52.7675 45.4794 54.0337C45.4794 54.7953 45.083 55.199 44.3092 55.199C42.1763 55.2082 40.0434 55.2082 37.9105 55.199C37.2027 55.199 36.8063 54.7677 36.8063 54.0429C36.8063 51.7674 36.8063 49.4919 36.8063 47.2164C36.8063 47.088 36.8063 46.9503 36.8063 46.7852C36.627 46.7852 36.4949 46.7852 36.3533 46.7852C34.0506 46.7852 31.7384 46.7852 29.4356 46.7852C28.5202 46.7852 28.1427 46.4273 28.1427 45.5373C28.1427 43.5646 28.1427 41.5919 28.1427 39.6192C28.1427 38.72 28.5108 38.3622 29.4262 38.3622C31.7195 38.3622 34.0128 38.3622 36.3062 38.3622C36.4572 38.3622 36.5987 38.3622 36.7969 38.3622C36.7969 38.2154 36.7969 38.0961 36.7969 37.9768C36.7969 35.7013 36.7969 33.4258 36.7969 31.1504C36.7969 30.3062 37.1838 29.9392 38.0521 29.9392C40.0812 29.9392 42.1102 29.9392 44.1393 29.9392C45.0925 29.9392 45.4605 30.2879 45.4605 31.2329C45.47 33.4901 45.4605 35.738 45.4605 37.9952C45.4605 38.1053 45.4605 38.2154 45.4605 38.3714C45.6115 38.3714 45.7437 38.3714 45.8664 38.3714C48.2069 38.3714 50.5474 38.3714 52.8879 38.3805C53.7467 38.3805 54.1147 38.7476 54.1147 39.5825C54.1147 41.5644 54.1147 43.5463 54.1147 45.5282C54.1147 46.4365 53.7561 46.7852 52.8407 46.7852C50.5096 46.7852 48.1785 46.7852 45.8569 46.7944C45.7625 46.7852 45.6493 46.7852 45.4794 46.7852Z" fill="url(#paint4_linear_1_230)"/>
</g>
<defs>
<linearGradient id="paint0_linear_1_230" x1="13.6386" y1="42.5657" x2="68.3722" y2="42.5657" gradientUnits="userSpaceOnUse">
<stop stop-color="#B0F4FF"/>
<stop offset="1" stop-color="#69DCFC"/>
</linearGradient>
<linearGradient id="paint1_linear_1_230" x1="-0.000450178" y1="42.5747" x2="13.6381" y2="42.5747" gradientUnits="userSpaceOnUse">
<stop stop-color="#6CBCFC"/>
<stop offset="1" stop-color="#458DFC"/>
</linearGradient>
<linearGradient id="paint2_linear_1_230" x1="21.5961" y1="7.00849" x2="59.7543" y2="7.00849" gradientUnits="userSpaceOnUse">
<stop stop-color="#6CBCFC"/>
<stop offset="1" stop-color="#458DFC"/>
</linearGradient>
<linearGradient id="paint3_linear_1_230" x1="68.3677" y1="42.569" x2="82.2865" y2="42.569" gradientUnits="userSpaceOnUse">
<stop stop-color="#6CBCFC"/>
<stop offset="1" stop-color="#458DFC"/>
</linearGradient>
<linearGradient id="paint4_linear_1_230" x1="28.1485" y1="42.5783" x2="54.1336" y2="42.5783" gradientUnits="userSpaceOnUse">
<stop stop-color="#6888C8"/>
<stop offset="1" stop-color="#458DFC"/>
</linearGradient>
<clipPath id="clip0_1_230">
<rect width="82.2857" height="71.1549" fill="white"/>
</clipPath>
</defs>
</svg>
