<svg width="64" height="96" viewBox="0 0 64 96" fill="none" xmlns="http://www.w3.org/2000/svg">
<path d="M63.936 4.31029V90.7055C63.936 93.0896 62.162 95.0158 59.9664 95.0158H3.96964C1.77398 95 0 93.0738 0 90.7055V4.31029C0 1.92621 1.77398 0 3.96964 0H59.9809C62.162 0 63.936 1.92621 63.936 4.31029Z" fill="url(#paint0_linear_1_240)"/>
<path d="M59.8631 7.94666V87.0533C59.8631 89.2363 58.3044 91 56.3751 91H7.172C5.24272 90.9855 3.68396 89.2218 3.68396 87.0533V7.94666C3.68396 5.76371 5.24272 4 7.172 4H56.3879C58.3044 4 59.8631 5.76371 59.8631 7.94666Z" fill="url(#paint1_linear_1_240)"/>
<path d="M24.7485 18.2516V22.183C24.7485 22.4672 24.5449 22.6882 24.2832 22.6882H19.8483C19.5865 22.6882 19.383 22.9093 19.383 23.1935V28.009C19.383 28.2932 19.1794 28.5142 18.9176 28.5142H15.297C15.0352 28.5142 14.8317 28.2932 14.8317 28.009V23.1935C14.8317 22.9093 14.6281 22.6882 14.3664 22.6882H9.94596C9.68422 22.6882 9.48065 22.4672 9.48065 22.183V18.2516C9.48065 17.9674 9.68422 17.7464 9.94596 17.7464H14.3809C14.6426 17.7464 14.8462 17.5254 14.8462 17.2412V12.4256C14.8462 12.1415 15.0498 11.9204 15.3115 11.9204H18.9322C19.1939 11.9204 19.3975 12.1415 19.3975 12.4256V17.2412C19.3975 17.5254 19.6011 17.7464 19.8628 17.7464H24.2832C24.5449 17.7464 24.7485 17.9674 24.7485 18.2516Z" fill="url(#paint2_linear_1_240)"/>
<path opacity="0.5" d="M53.9465 39.6768H9.98959C9.69878 39.6768 9.46613 39.4242 9.46613 39.1084V37.2927C9.46613 36.9769 9.69878 36.7243 9.98959 36.7243H53.9465C54.2373 36.7243 54.47 36.9769 54.47 37.2927V39.1084C54.4554 39.4242 54.2373 39.6768 53.9465 39.6768Z" fill="url(#paint3_linear_1_240)"/>
<path d="M53.9465 17.0517H32.1352C31.8444 17.0517 31.6118 16.7991 31.6118 16.4833V14.6834C31.6118 14.3676 31.8444 14.115 32.1352 14.115H53.9465C54.2373 14.115 54.4699 14.3676 54.4699 14.6834V16.4991C54.4554 16.7991 54.2373 17.0517 53.9465 17.0517Z" fill="url(#paint4_linear_1_240)"/>
<path opacity="0.5" d="M47.4903 24.7249H32.1352C31.8444 24.7249 31.6118 24.4723 31.6118 24.1565V22.3408C31.6118 22.0251 31.8444 21.7725 32.1352 21.7725H47.4903C47.7812 21.7725 48.0138 22.0251 48.0138 22.3408V24.1565C47.9993 24.4723 47.7812 24.7249 47.4903 24.7249Z" fill="url(#paint5_linear_1_240)"/>
<path opacity="0.5" d="M53.9465 48.2973H9.98959C9.69878 48.2973 9.46613 48.0447 9.46613 47.729V45.9133C9.46613 45.5975 9.69878 45.3449 9.98959 45.3449H53.9465C54.2373 45.3449 54.47 45.5975 54.47 45.9133V47.729C54.4554 48.0447 54.2373 48.2973 53.9465 48.2973Z" fill="url(#paint6_linear_1_240)"/>
<path opacity="0.5" d="M53.9465 56.9179H9.98959C9.69878 56.9179 9.46613 56.6653 9.46613 56.3495V54.5338C9.46613 54.2181 9.69878 53.9655 9.98959 53.9655H53.9465C54.2373 53.9655 54.47 54.2181 54.47 54.5338V56.3653C54.4554 56.6653 54.2373 56.9179 53.9465 56.9179Z" fill="url(#paint7_linear_1_240)"/>
<path opacity="0.5" d="M53.9465 65.5543H9.98959C9.69878 65.5543 9.46613 65.3017 9.46613 64.9859V63.1702C9.46613 62.8544 9.69878 62.6018 9.98959 62.6018H53.9465C54.2373 62.6018 54.47 62.8544 54.47 63.1702V64.9859C54.4554 65.3017 54.2373 65.5543 53.9465 65.5543Z" fill="url(#paint8_linear_1_240)"/>
<path opacity="0.5" d="M53.9465 74.1749H9.98959C9.69878 74.1749 9.46613 73.9223 9.46613 73.6065V71.7908C9.46613 71.475 9.69878 71.2224 9.98959 71.2224H53.9465C54.2373 71.2224 54.47 71.475 54.47 71.7908V73.6065C54.4554 73.9223 54.2373 74.1749 53.9465 74.1749Z" fill="url(#paint9_linear_1_240)"/>
<path opacity="0.5" d="M53.9465 82.7954H9.98959C9.69878 82.7954 9.46613 82.5428 9.46613 82.227V80.4113C9.46613 80.0956 9.69878 79.843 9.98959 79.843H53.9465C54.2373 79.843 54.47 80.0956 54.47 80.4113V82.227C54.4554 82.5428 54.2373 82.7954 53.9465 82.7954Z" fill="url(#paint10_linear_1_240)"/>
<path opacity="0.1" d="M63.936 4.31029V90.7055C63.936 93.0896 62.162 95.0158 59.9664 95.0158H3.96964C1.77398 95 0 93.0738 0 90.7055V89.2056C34.1564 73.8906 50.0641 15.1571 53.6556 0H59.9664C62.162 0 63.936 1.92621 63.936 4.31029Z" fill="#1A6FB5" fill-opacity="0.4"/>
<defs>
<linearGradient id="paint0_linear_1_240" x1="87.4921" y1="126" x2="-15.3453" y2="2.68919" gradientUnits="userSpaceOnUse">
<stop offset="0.3061" stop-color="#6888C8"/>
<stop offset="1" stop-color="#69B8FC"/>
</linearGradient>
<linearGradient id="paint1_linear_1_240" x1="7.94261" y1="7.04564" x2="58.5407" y2="74.1231" gradientUnits="userSpaceOnUse">
<stop offset="0.3061" stop-color="white"/>
<stop offset="1" stop-color="white"/>
</linearGradient>
<linearGradient id="paint2_linear_1_240" x1="9.20974" y1="9.50003" x2="24.7391" y2="32.8601" gradientUnits="userSpaceOnUse">
<stop stop-color="#B0F4FF"/>
<stop offset="0.368525" stop-color="#80E4FD"/>
<stop offset="1" stop-color="#6CDDFC"/>
</linearGradient>
<linearGradient id="paint3_linear_1_240" x1="9.47735" y1="38.2072" x2="54.4621" y2="38.2072" gradientUnits="userSpaceOnUse">
<stop stop-color="#6CBCFC"/>
<stop offset="1" stop-color="#458DFC"/>
</linearGradient>
<linearGradient id="paint4_linear_1_240" x1="31.6122" y1="15.5844" x2="54.462" y2="15.5844" gradientUnits="userSpaceOnUse">
<stop stop-color="#6CBCFC"/>
<stop offset="1" stop-color="#458DFC"/>
</linearGradient>
<linearGradient id="paint5_linear_1_240" x1="31.6122" y1="23.2616" x2="48.0061" y2="23.2616" gradientUnits="userSpaceOnUse">
<stop stop-color="#6CBCFC"/>
<stop offset="1" stop-color="#458DFC"/>
</linearGradient>
<linearGradient id="paint6_linear_1_240" x1="9.47735" y1="46.8317" x2="54.4621" y2="46.8317" gradientUnits="userSpaceOnUse">
<stop stop-color="#6CBCFC"/>
<stop offset="1" stop-color="#458DFC"/>
</linearGradient>
<linearGradient id="paint7_linear_1_240" x1="9.47735" y1="55.4562" x2="54.4621" y2="55.4562" gradientUnits="userSpaceOnUse">
<stop stop-color="#6CBCFC"/>
<stop offset="1" stop-color="#458DFC"/>
</linearGradient>
<linearGradient id="paint8_linear_1_240" x1="9.47735" y1="64.0807" x2="54.4621" y2="64.0807" gradientUnits="userSpaceOnUse">
<stop stop-color="#6CBCFC"/>
<stop offset="1" stop-color="#458DFC"/>
</linearGradient>
<linearGradient id="paint9_linear_1_240" x1="9.47735" y1="72.7052" x2="54.4621" y2="72.7052" gradientUnits="userSpaceOnUse">
<stop stop-color="#6CBCFC"/>
<stop offset="1" stop-color="#458DFC"/>
</linearGradient>
<linearGradient id="paint10_linear_1_240" x1="9.47735" y1="81.3296" x2="54.4621" y2="81.3296" gradientUnits="userSpaceOnUse">
<stop stop-color="#6CBCFC"/>
<stop offset="1" stop-color="#458DFC"/>
</linearGradient>
</defs>
</svg>
